####
#
# OBJ File Generated by Meshlab
#
####
# Object leftBox.obj
#
# Vertices: 8
# Faces: 12
#
####
mtllib ./leftBox.obj.mtl

vn -0.799122 -0.577348 -0.167551
v -4.964400 0.312300 -3.839500
vn 0.167560 -0.577351 -0.799118
v -2.038100 0.312300 -5.751300
vn -0.799122 0.577348 -0.167551
v -4.964400 9.417200 -3.839500
vn 0.167560 0.577351 -0.799118
v -2.038100 9.417200 -5.751300
vn -0.167544 -0.577352 0.799121
v -3.021200 0.312300 -0.865400
vn 0.799120 -0.577350 0.167554
v -0.095000 0.312300 -2.777200
vn -0.167544 0.577352 0.799121
v -3.021200 9.417200 -0.865400
vn 0.799120 0.577350 0.167554
v -0.095000 9.417200 -2.777200
# 8 vertices, 0 vertices normals


usemtl material_0
f 1//1 3//3 4//4
f 4//4 2//2 1//1
f 5//5 6//6 8//8
f 8//8 7//7 5//5
f 1//1 2//2 6//6
f 6//6 5//5 1//1
f 2//2 4//4 8//8
f 8//8 6//6 2//2
f 4//4 3//3 7//7
f 7//7 8//8 4//4
f 3//3 1//1 5//5
f 5//5 7//7 3//3
# 12 faces, 0 coords texture

# End of File
