####
#
# OBJ File Generated by Meshlab
#
####
# Object teapotLowRes.obj
#
# Vertices: 137
# Faces: 128
#
####
mtllib ./teapotLowRes.obj.mtl

vn -0.864665 0.021301 -0.501897
v 2.586223 7.073298 3.499780
vn -0.254623 -0.027873 -0.966639
v 2.232320 7.108095 3.859389
vn -0.360870 0.902303 -0.235846
v 2.234198 7.154412 3.857560
vn -0.369297 0.925794 0.080780
v 2.588888 7.119538 3.497148
vn 0.323326 0.607758 0.725321
v 2.250629 7.110581 3.902925
vn 0.775389 0.563104 0.285807
v 2.629812 7.073298 3.517630
vn 0.495116 -0.082038 -0.864945
v 1.726776 7.122308 3.858449
vn -0.125907 0.875859 -0.465853
v 1.727526 7.168655 3.856616
vn -0.308157 0.622935 0.719021
v 1.708976 7.125807 3.901917
vn 0.962170 -0.132274 -0.238186
v 1.351061 7.108095 3.498521
vn 0.203816 0.847971 -0.489290
v 1.363872 7.154412 3.501169
vn -0.751051 0.603751 0.267222
v 1.322182 7.110581 3.522734
vn 0.862274 -0.007658 0.506384
v 1.365728 7.073298 2.999999
vn 0.462439 0.861975 -0.207725
v 1.365675 7.119538 2.996253
vn -0.745957 0.558088 -0.363436
v 1.322139 7.073298 2.982149
vn 0.256397 0.090731 0.962304
v 1.719632 7.038503 2.640388
vn 0.411893 0.904417 0.111238
v 1.720365 7.084664 2.635839
vn -0.291485 0.519709 -0.803081
v 1.701322 7.036016 2.596853
vn -0.498160 0.104918 0.860714
v 2.225176 7.024290 2.641328
vn 0.169786 0.927890 0.331954
v 2.227036 7.070419 2.636784
vn 0.339622 0.500792 -0.796156
v 2.242976 7.020788 2.597860
vn -0.964995 0.076169 0.250963
v 2.586183 7.038503 2.995234
vn -0.147622 0.934821 0.322981
v 2.588852 7.084664 2.991476
vn 0.781037 0.521068 -0.344195
v 2.629769 7.036016 2.977044
vn 0.373179 0.360259 0.854957
v 2.303249 6.753627 4.077785
vn 0.887190 0.309247 0.342434
v 2.769331 6.707800 3.604195
vn 0.385496 -0.068930 0.920131
v 2.322284 6.418430 4.169197
vn 0.917084 -0.120708 0.379981
v 2.827860 6.368721 3.655469
vn -0.354030 0.379633 0.854717
v 1.637465 6.772346 4.076552
vn -0.374027 -0.046570 0.926248
v 1.600077 6.438734 4.167854
vn -0.868612 0.359856 0.340611
v 1.162033 6.753627 3.610467
vn -0.916259 -0.068404 0.394704
v 1.084351 6.418430 3.662275
vn -0.869738 0.308693 -0.385051
v 1.161976 6.707800 2.945998
vn -0.800138 0.368876 -0.472979
v 1.084295 6.368721 2.941495
vn -0.355662 0.259964 -0.897732
v 1.628058 6.661977 2.472407
vn -0.392321 -0.172732 -0.903464
v 1.589871 6.319012 2.427767
vn 0.371481 0.238308 -0.897336
v 2.293842 6.643258 2.473641
vn 0.367230 -0.194122 -0.909648
v 2.312077 6.298709 2.429110
vn 0.886128 0.260367 -0.383387
v 2.769274 6.661977 2.939725
vn 0.909434 -0.173259 -0.378037
v 2.827803 6.319012 2.934689
vn 0.306772 -0.553143 0.774548
v 2.269667 6.170020 4.077062
vn 0.732262 -0.594038 0.333033
v 2.712046 6.126523 3.627548
vn 0.209613 -0.796576 0.567035
v 2.220782 6.053713 3.975814
vn 0.503825 -0.825352 0.254861
v 2.599965 6.016431 3.590518
vn -0.308003 -0.533292 0.787867
v 1.637737 6.187786 4.075886
vn -0.220666 -0.782293 0.582515
v 1.679128 6.068942 3.974807
vn -0.751155 -0.551682 0.362509
v 1.186477 6.170020 3.633505
vn -0.533984 -0.794794 0.288379
v 1.292335 6.053713 3.595623
vn -0.765758 -0.592028 -0.251233
v 1.186429 6.126523 3.002822
vn -0.550374 -0.822894 -0.141186
v 1.292292 6.016431 3.055037
vn -0.340356 -0.636048 -0.692532
v 1.628807 6.083029 2.553311
vn -0.256222 -0.853784 -0.453214
v 1.671474 5.979150 2.669742
vn 0.274507 -0.652775 -0.706067
v 2.260737 6.065263 2.554485
vn 0.174117 -0.865952 -0.468839
v 2.213128 5.963922 2.670749
vn 0.717571 -0.637508 -0.280493
v 2.711997 6.083029 2.996868
vn 0.487375 -0.855567 -0.174558
v 2.599922 5.979150 3.049933
vn 0.185806 -0.889173 0.418148
v 2.179930 5.999916 3.885277
vn 0.376303 -0.911312 0.167052
v 2.504609 5.967994 3.555373
vn -0.028164 -0.997234 0.068777
v 1.944138 5.945974 3.327638
vn -0.129535 -0.876580 0.463496
v 1.716141 6.012956 3.884420
vn -0.381472 -0.883166 0.272940
v 1.384954 5.999916 3.559741
vn -0.427543 -0.903023 -0.041923
v 1.384911 5.967994 3.096866
vn -0.237077 -0.926272 -0.292941
v 1.709590 5.936072 2.766962
vn 0.078294 -0.937752 -0.338366
v 2.173379 5.923032 2.767818
vn 0.330202 -0.932278 -0.147733
v 2.504566 5.936072 3.092497
vn -0.050643 -0.972701 0.226468
v 1.273575 6.897154 2.976448
vn -0.321947 0.633576 0.703514
v 1.256812 6.957874 3.079532
vn -0.579466 -0.050220 0.813448
v 0.833979 6.938060 2.907980
vn 0.290093 -0.935417 0.202090
v 0.919041 6.883946 2.832332
vn -0.449832 -0.280055 0.848069
v 0.685675 6.799344 2.858425
vn 0.878425 -0.272715 0.392423
v 0.791110 6.791467 2.787394
vn 0.043854 0.972323 -0.229490
v 1.320149 7.002841 2.987008
vn -0.333468 0.916112 -0.222571
v 0.829024 6.976423 2.788024
vn -0.897168 0.207791 -0.389761
v 0.660343 6.791467 2.733846
vn 0.309780 -0.634638 -0.708004
v 1.336913 6.942122 2.883922
vn 0.523210 -0.021320 -0.851937
v 0.914078 6.922307 2.712372
vn 0.413569 0.202572 -0.887652
v 0.765776 6.783591 2.662815
vn -0.267019 -0.086460 0.959805
v 0.772418 6.542830 2.914602
vn 0.763314 0.595240 0.251079
v 0.855973 6.580094 2.830977
vn 0.037108 0.482762 0.874965
v 1.064050 6.306139 3.053083
vn -0.742221 -0.624981 -0.241881
v 0.768966 6.489823 2.802617
vn -0.609302 -0.792923 -0.004859
v 1.123905 6.227806 2.969064
vn 0.313920 0.042941 -0.948478
v 0.852518 6.527079 2.718994
vn 0.032200 -0.527494 -0.848949
v 1.144150 6.290386 2.857474
vn -0.505032 0.862615 -0.028956
v 2.704058 6.615323 3.584913
vn 0.000158 -0.226331 0.974051
v 2.610475 6.438893 3.813447
vn -0.260325 0.211073 0.942167
v 3.010987 6.719747 3.876354
vn -0.604846 0.743205 -0.286019
v 3.008707 6.791467 3.695480
vn -0.388537 0.122487 0.913256
v 3.250275 7.079862 3.866872
vn -0.527033 0.790287 -0.312542
v 3.152882 7.073298 3.731822
vn 0.652506 -0.751422 0.097984
v 2.693113 6.227806 3.611640
vn 0.710443 -0.630796 0.312037
v 3.134748 6.624126 3.760568
vn 0.697267 -0.639708 0.323407
v 3.414417 7.073298 3.838918
vn 0.226647 0.351478 -0.908347
v 2.786695 6.404235 3.383107
vn 0.407313 -0.089786 -0.908865
v 3.132468 6.695855 3.579691
vn 0.489425 0.123797 -0.863213
v 3.317024 7.066735 3.703865
vn -0.081777 0.986176 -0.144118
v 3.313002 7.109927 3.870998
vn 0.456982 0.670430 -0.584543
v 3.208115 7.099724 3.752310
vn 0.614192 0.028985 -0.788624
v 3.263624 7.077236 3.834271
vn 0.495388 -0.450537 0.742702
v 3.196470 7.073298 3.749671
vn -0.039512 0.590391 0.806150
v 3.471289 7.109626 3.859281
vn -0.195865 0.912444 -0.359281
v 3.370828 7.073298 3.821069
vn 0.837207 -0.049186 0.544670
v 3.366402 7.099424 3.740592
vn -0.333837 0.645743 0.686709
v 3.303675 7.069361 3.736466
vn 0.222825 -0.345566 0.911555
v 2.043269 7.354416 3.372727
vn 0.782867 -0.389349 0.485310
v 2.125352 7.346327 3.289068
vn 0.028164 0.997234 -0.068778
v 1.985925 7.425588 3.225592
vn 0.417997 0.516228 0.747520
v 2.016576 7.219185 3.327240
vn 0.851778 0.467134 0.237194
v 2.067134 7.214214 3.275869
vn -0.468438 -0.330989 0.819153
v 1.925837 7.357705 3.372331
vn -0.255330 0.537468 0.803701
v 1.944356 7.221216 3.327106
vn -0.896560 -0.358920 0.259532
v 1.841854 7.354416 3.290249
vn -0.767572 0.523648 0.369631
v 1.892784 7.219185 3.276549
vn -0.805379 -0.407646 -0.430338
v 1.842022 7.346327 3.173047
vn -0.825107 0.477283 -0.302324
v 1.892776 7.214214 3.204472
vn -0.245413 -0.454275 -0.856391
v 1.924105 7.338240 3.089389
vn -0.391234 0.431465 -0.812880
v 1.943335 7.209242 3.153099
vn 0.445929 -0.466012 -0.764186
v 2.041537 7.334951 3.089785
vn 0.282003 0.406941 -0.868835
v 2.015556 7.207213 3.153232
vn 0.873971 -0.440919 -0.204366
v 2.125519 7.338240 3.171866
vn 0.794335 0.424044 -0.434992
v 2.067128 7.209242 3.203790
vn 0.125958 0.975442 0.180686
v 2.129027 7.164261 3.604205
vn 0.272838 0.961259 0.039253
v 2.337576 7.143757 3.392287
vn 0.181568 0.964005 0.194235
v 2.214010 7.105611 3.815853
vn 0.320758 0.947101 0.010684
v 2.542633 7.073298 3.481931
vn -0.078120 0.980791 0.178736
v 1.831115 7.172637 3.603646
vn -0.048959 0.972509 0.227661
v 1.744576 7.118808 3.814980
vn -0.220129 0.974951 0.031846
v 1.618374 7.164261 3.395096
vn -0.233157 0.968416 0.088362
v 1.409354 7.105611 3.486354
vn -0.218562 0.960581 -0.171800
v 1.618355 7.143757 3.097772
vn -0.267088 0.953190 -0.141746
v 1.409318 7.073298 3.017848
vn -0.071666 0.946955 -0.313272
v 1.826904 7.123250 2.885853
vn -0.127884 0.936909 -0.325342
v 1.737942 7.040987 2.683924
vn 0.132397 0.941049 -0.311284
v 2.124815 7.114876 2.886414
vn 0.102628 0.927785 -0.358725
v 2.207375 7.027791 2.684798
vn 0.274423 0.947446 -0.164431
v 2.337558 7.123250 3.094962
vn 0.286846 0.932499 -0.219467
v 2.542597 7.040987 3.013423
# 137 vertices, 0 vertices normals


usemtl material_0
vt 0.000000 0.000000
vt 0.000000 0.000000
f 2/1/2 3/1/3 4/1/4 1/2/1
f 3/1/3 5/1/5 6/1/6 4/2/4
f 7/1/7 8/1/8 3/1/3 2/2/2
f 8/1/8 9/1/9 5/1/5 3/2/3
f 10/1/10 11/1/11 8/1/8 7/2/7
f 11/1/11 12/1/12 9/1/9 8/2/8
f 13/1/13 14/1/14 11/1/11 10/2/10
f 14/1/14 15/1/15 12/1/12 11/2/11
f 16/1/16 17/1/17 14/1/14 13/2/13
f 17/1/17 18/1/18 15/1/15 14/2/14
f 19/1/19 20/1/20 17/1/17 16/2/16
f 20/1/20 21/1/21 18/1/18 17/2/17
f 22/1/22 23/1/23 20/1/20 19/2/19
f 23/1/23 24/1/24 21/1/21 20/2/20
f 1/1/1 4/1/4 23/1/23 22/2/22
f 4/1/4 6/1/6 24/1/24 23/2/23
f 5/1/5 25/1/25 26/1/26 6/2/6
f 25/1/25 27/1/27 28/1/28 26/2/26
f 9/1/9 29/1/29 25/1/25 5/2/5
f 29/1/29 30/1/30 27/1/27 25/2/25
f 12/1/12 31/1/31 29/1/29 9/2/9
f 31/1/31 32/1/32 30/1/30 29/2/29
f 15/1/15 33/1/33 31/1/31 12/2/12
f 33/1/33 34/1/34 32/1/32 31/2/31
f 18/1/18 35/1/35 33/1/33 15/2/15
f 35/1/35 36/1/36 34/1/34 33/2/33
f 21/1/21 37/1/37 35/1/35 18/2/18
f 37/1/37 38/1/38 36/1/36 35/2/35
f 24/1/24 39/1/39 37/1/37 21/2/21
f 39/1/39 40/1/40 38/1/38 37/2/37
f 6/1/6 26/1/26 39/1/39 24/2/24
f 26/1/26 28/1/28 40/1/40 39/2/39
f 27/1/27 41/1/41 42/1/42 28/2/28
f 41/1/41 43/1/43 44/1/44 42/2/42
f 30/1/30 45/1/45 41/1/41 27/2/27
f 45/1/45 46/1/46 43/1/43 41/2/41
f 32/1/32 47/1/47 45/1/45 30/2/30
f 47/1/47 48/1/48 46/1/46 45/2/45
f 34/1/34 49/1/49 47/1/47 32/2/32
f 49/1/49 50/1/50 48/1/48 47/2/47
f 36/1/36 51/1/51 49/1/49 34/2/34
f 51/1/51 52/1/52 50/1/50 49/2/49
f 38/1/38 53/1/53 51/1/51 36/2/36
f 53/1/53 54/1/54 52/1/52 51/2/51
f 40/1/40 55/1/55 53/1/53 38/2/38
f 55/1/55 56/1/56 54/1/54 53/2/53
f 28/1/28 42/1/42 55/1/55 40/2/40
f 42/1/42 44/1/44 56/1/56 55/2/55
vt 0.000000 0.000000
f 43/1/43 57/1/57 58/1/58 44/3/44
f 58/1/58 57/1/57 59/1/59
f 46/1/46 60/1/60 57/1/57 43/3/43
f 57/1/57 60/1/60 59/1/59
f 48/1/48 61/1/61 60/1/60 46/3/46
f 60/1/60 61/1/61 59/1/59
f 50/1/50 62/1/62 61/1/61 48/3/48
f 61/1/61 62/1/62 59/1/59
f 52/1/52 63/1/63 62/1/62 50/3/50
f 62/1/62 63/1/63 59/1/59
f 54/1/54 64/1/64 63/1/63 52/3/52
f 63/1/63 64/1/64 59/1/59
f 56/1/56 65/1/65 64/1/64 54/3/54
f 64/1/64 65/1/65 59/1/59
f 44/1/44 58/1/58 65/1/65 56/3/56
f 65/1/65 58/1/58 59/1/59
f 67/1/67 68/1/68 69/1/69 66/2/66
f 68/1/68 70/1/70 71/1/71 69/2/69
f 72/1/72 73/1/73 68/1/68 67/2/67
f 73/1/73 74/1/74 70/1/70 68/2/68
f 75/1/75 76/1/76 73/1/73 72/2/72
f 76/1/76 77/1/77 74/1/74 73/2/73
f 66/1/66 69/1/69 76/1/76 75/2/75
f 69/1/69 71/1/71 77/1/77 76/2/76
f 70/1/70 78/1/78 79/1/79 71/2/71
f 78/1/78 80/1/80 34/1/34 79/2/79
f 74/1/74 81/1/81 78/1/78 70/2/70
f 81/1/81 82/1/82 80/1/80 78/2/78
f 77/1/77 83/1/83 81/1/81 74/2/74
f 83/1/83 84/1/84 82/1/82 81/2/81
f 71/1/71 79/1/79 83/1/83 77/2/77
f 79/1/79 34/1/34 84/1/84 83/2/83
f 86/1/86 87/1/87 88/1/88 85/2/85
f 87/1/87 89/1/89 90/1/90 88/2/88
f 91/1/91 92/1/92 87/1/87 86/2/86
f 92/1/92 93/1/93 89/1/89 87/2/87
f 94/1/94 95/1/95 92/1/92 91/2/91
f 95/1/95 96/1/96 93/1/93 92/2/92
f 85/1/85 88/1/88 95/1/95 94/2/94
f 88/1/88 90/1/90 96/1/96 95/2/95
f 89/1/89 97/1/97 98/1/98 90/2/90
f 97/1/97 99/1/99 100/1/100 98/2/98
f 93/1/93 101/1/101 97/1/97 89/2/89
f 101/1/101 102/1/102 99/1/99 97/2/97
f 96/1/96 103/1/103 101/1/101 93/2/93
f 103/1/103 104/1/104 102/1/102 101/2/101
f 90/1/90 98/1/98 103/1/103 96/2/96
f 98/1/98 100/1/100 104/1/104 103/3/103
f 105/1/105 106/1/106 107/1/107
f 105/1/105 108/1/108 109/1/109 106/3/106
f 110/1/110 105/1/105 107/1/107
f 110/1/110 111/1/111 108/1/108 105/3/105
f 112/1/112 110/1/110 107/1/107
f 112/1/112 113/1/113 111/1/111 110/3/110
f 114/1/114 112/1/112 107/1/107
f 114/1/114 115/1/115 113/1/113 112/3/112
f 116/1/116 114/1/114 107/1/107
f 116/1/116 117/1/117 115/1/115 114/3/114
f 118/1/118 116/1/116 107/1/107
f 118/1/118 119/1/119 117/1/117 116/3/116
f 120/1/120 118/1/118 107/1/107
f 120/1/120 121/1/121 119/1/119 118/3/118
f 106/1/106 120/1/120 107/1/107
f 106/1/106 109/1/109 121/1/121 120/2/120
f 108/1/108 122/1/122 123/1/123 109/2/109
f 122/1/122 124/1/124 125/1/125 123/2/123
f 111/1/111 126/1/126 122/1/122 108/2/108
f 126/1/126 127/1/127 124/1/124 122/2/122
f 113/1/113 128/1/128 126/1/126 111/2/111
f 128/1/128 129/1/129 127/1/127 126/2/126
f 115/1/115 130/1/130 128/1/128 113/2/113
f 130/1/130 131/1/131 129/1/129 128/2/128
f 117/1/117 132/1/132 130/1/130 115/2/115
f 132/1/132 133/1/133 131/1/131 130/2/130
f 119/1/119 134/1/134 132/1/132 117/2/117
f 134/1/134 135/1/135 133/1/133 132/2/132
f 121/1/121 136/1/136 134/1/134 119/2/119
f 136/1/136 137/1/137 135/1/135 134/2/134
f 109/1/109 123/1/123 136/1/136 121/2/121
f 123/1/123 125/1/125 137/1/137 136/1/136
# 128 faces, 3 coords texture

# End of File
